:SAMPLES-PER-SECOND 30
:FULLY-SPECIFIED
:DEGREES
305
root  34.85956567 36.49654238 -14.95109168 8.158640862 -4.722980976 4.127177238
lowerback  -7.423460007 -1.156659961 -0.5938570499
upperback  -4.056819916 -1.058920026 -3.369829893
thorax  -0.08094839752 -0.3755460083 -3.219369888
lowerneck  -13.5248003 1.040120006 1.167019963
upperneck  17.63400078 0.7096170187 4.53839016
head  7.659100056 1.025859952 1.398100019
lclavicle  0 -4.497500157e-015 -2.743230041e-014
lhumerus  -48.89530182 28.30850029 64.02420044
lradius  5.228657756e-007 -6.507048965e-006 31.75239944
lwrist  4.824992743e-007 -3.790274832e-007 -25.47940063
lhand  -4.410347018e-031 -36.80820084 -10.72949982
lfingers  90 7.125020027 -90
lthumb  94.78452273 -25.5675149 100.9757892
rclavicle  0 -4.497500157e-015 -2.743230041e-014
rhumerus  -61.90330124 -21.7799015 -28.47709656
rradius  -5.16745672e-007 2.214343908e-008 99.84339905
rwrist  -0.0001064338358 0.02974390797 174.3229828
rhand  -1.770623531e-031 4.333079815 -5.267119884
rfingers  -90 -7.125020027 -90
rthumb  -83.93193415 -10.48547424 -59.70908151
rfemur  -12.47566128 15.99158955 12.64010525
rtibia  -1.665673614 -1.131268263 21.76843452
rfoot  -0.1903749704 -21.90283203 -36.38254166
rtoes  3.877326673 19.635675 -101.4030224
lfemur  -8.061858177 -17.88331604 -21.02252388
ltibia  2.617072105 -1.449995756 15.00658321
lfoot  1.051522732 -22.9720974 37.94094086
ltoes  -8.547567483 -18.14945855 -115.7577042
306
root  34.8551232 36.49708906 -14.94789724 8.172606468 -4.677838802 4.106721878
lowerback  -7.412119865 -1.120689988 -0.5857335925
upperback  -4.050859928 -1.014809966 -3.340719938
thorax  -0.07829049975 -0.3545050025 -3.190380096
lowerneck  -13.54539967 1.144739985 1.227689981
upperneck  17.64360046 0.8543300033 4.457389832
head  7.663799763 1.090559959 1.376729965
lclavicle  0 -4.497500157e-015 -2.743230041e-014
lhumerus  -48.83549881 28.24979973 64.19120026
lradius  5.228657756e-007 -6.507048965e-006 31.76670074
lwrist  4.824992743e-007 -3.790274832e-007 -25.4102993
lhand  -4.40946029e-031 -36.7928009 -10.68690014
lfingers  90 7.125020027 -90
lthumb  94.76832672 -25.52634129 100.9554259
rclavicle  0 -4.497500157e-015 -2.743230041e-014
rhumerus  -62.0766983 -21.87960243 -29.32369614
rradius  -5.16745672e-007 2.214343908e-008 99.34230042
rwrist  -0.0001064338358 0.02974390797 174.59198
rhand  -1.771272517e-031 4.601819992 -5.569429874
rfingers  -90 -7.125020027 -90
rthumb  -84.01712349 -10.23759334 -59.47347959
rfemur  -12.48243999 15.97947311 12.6727705
rtibia  -1.660945058 -1.103879094 21.76585007
rfoot  -0.1809116304 -21.86104774 -36.38645172
rtoes  3.889144126 19.63342657 -101.4381913
lfemur  -8.051796913 -17.8553009 -20.99470329
ltibia  2.627887249 -1.406116366 14.97933578
lfoot  1.046589613 -23.0384655 37.89769745
ltoes  -8.560305061 -18.14361291 -115.7986021
307
root  34.85086997 36.49778892 -14.94473885 8.188290596 -4.647542477 4.088331699
lowerback  -7.376460075 -1.086899996 -0.5812814832
upperback  -4.058640003 -0.9736009836 -3.311429977
thorax  -0.103384003 -0.3347040117 -3.158879995
lowerneck  -13.54300022 1.215630054 1.18780005
upperneck  17.63979912 0.9547249675 4.494180202
head  7.659689903 1.139260054 1.405830026
lclavicle  0 -4.497500157e-015 -2.743230041e-014
lhumerus  -48.81610107 28.16609955 64.32820129
lradius  5.228657756e-007 -6.507048965e-006 31.79100037
lwrist  4.824992743e-007 -3.790274832e-007 -25.31760025
lhand  -4.411539904e-031 -36.82889938 -10.68379974
lfingers  90 7.125020027 -90
lthumb  94.78458383 -25.52196928 100.9937526
rclavicle  0 -4.497500157e-015 -2.743230041e-014
rhumerus  -62.30720139 -21.98550224 -30.14189529
rradius  -5.16745672e-007 2.214343908e-008 98.95980072
rwrist  -0.0001064338358 0.02974390797 174.7709961
rhand  -1.771410377e-031 4.656889915 -5.684249878
rfingers  -90 -7.125020027 -90
rthumb  -84.06209884 -10.14144615 -59.42994643
rfemur  -12.4829855 15.94829369 12.69721222
rtibia  -1.651510119 -1.084723711 21.7509346
rfoot  -0.1738615781 -21.83481216 -36.38819122
rtoes  3.893521665 19.63259187 -101.4512199
lfemur  -8.051763535 -17.80253029 -20.96421623
ltibia  2.633666992 -1.375929952 14.95923138
lfoot  1.041380525 -23.07488441 37.85198975
ltoes  -8.582365106 -18.13346325 -115.8694627
308
root  34.8465957 36.49752159 -14.94336917 8.184388161 -4.599645138 4.09209919
lowerback  -7.388939857 -1.06072998 -0.5663926005
upperback  -4.057829857 -0.9416959882 -3.277940035
thorax  -0.09363750368 -0.3194729984 -3.130429983
lowerneck  -13.5781002 1.297060013 1.183179975
upperneck  17.67060089 1.060960174 4.532939911
head  7.673860073 1.194900036 1.431460142
lclavicle  0 -4.497500157e-015 -2.743230041e-014
lhumerus  -48.79290009 28.09320068 64.45899963
lradius  5.228657756e-007 -6.507048965e-006 31.8207016
lwrist  4.824992743e-007 -3.790274832e-007 -25.21100044
lhand  -0 -36.90200043 -10.65149975
lfingers  90 7.125020027 -90
lthumb  94.81200627 -25.48770008 101.06903
rclavicle  0 -4.497500157e-015 -2.743230041e-014
rhumerus  -62.34859848 -22.12070084 -31.04700089
rradius  -5.16745672e-007 2.214343908e-008 98.48239899
rwrist  -0.0001064338358 0.02974390797 175.5090027
rhand  -1.771934622e-031 4.860549927 -5.444180012
rfingers  -90 -7.125020027 -90
rthumb  -83.8843206 -10.35799415 -59.20826702
rfemur  -12.48375988 15.94373322 12.71446133
rtibia  -1.66083324 -1.064051747 21.78482246
rfoot  -0.201269418 -21.81530762 -36.43540192
rtoes  3.889037205 19.63344695 -101.4378731
lfemur  -7.990148544 -17.78077888 -20.98352432
ltibia  2.67879343 -1.351182103 14.86649132
lfoot  1.016969919 -23.07103729 37.79161835
ltoes  -8.602598352 -18.1241254 -115.9344892
309
root  34.84060933 36.49792408 -14.94262125 8.191324234 -4.554386616 4.066753387
lowerback  -7.409819603 -1.046959996 -0.5614230037
upperback  -4.041810036 -0.9242939949 -3.270679951
thorax  -0.06460990012 -0.3112129867 -3.124850035
lowerneck  -13.65110016 1.408660054 1.305750012
upperneck  17.73629951 1.196210027 4.482880116
head  7.707449913 1.265290022 1.410989881
lclavicle  0 -4.497500157e-015 -2.743230041e-014
lhumerus  -48.83840179 28.13209915 64.42369843
lradius  5.228657756e-007 -6.507048965e-006 31.66330147
lwrist  4.824992743e-007 -3.790274832e-007 -25.85709953
lhand  -0 -36.8586998 -10.63469982
lfingers  90 7.125020027 -90
lthumb  94.78815203 -25.4727479 101.0211389
rclavicle  0 -4.497500157e-015 -2.743230041e-014
rhumerus  -62.36769867 -22.25399971 -32.04079819
rradius  -5.16745672e-007 2.214343908e-008 98.01730347
rwrist  -0.0001064338358 0.02974390797 176.1130066
rhand  -1.772276595e-031 4.988870144 -5.482379913
rfingers  -90 -7.125020027 -90
rthumb  -83.87027267 -10.33144923 -59.08592358
rfemur  -12.46097088 15.95578003 12.7457428
rtibia  -1.647170901 -1.053543329 21.74749184
rfoot  -0.1999281049 -21.81062317 -36.49158478
rtoes  3.901706928 19.63102849 -101.4755827
lfemur  -7.992328167 -17.80754662 -20.94494057
ltibia  2.672941923 -1.331082344 14.87393093
lfoot  1.006252527 -23.10329628 37.75643921
ltoes  -8.594053447 -18.12807231 -115.9070233
